PathFileType	4	(X/Y/Z)	C:\Users\WrightLab\Desktop\Jo\P1_boxCal34.trc
DataRate	CameraRate	NumFrames	NumMarkers	Units	OrigDataRate	OrigDataStartFrame	OrigNumFrames
100.00	100.00	       32	19	mm	100.00	1	       544
Frame#	Time	Headset_Front			Headset_Back			Headset_Left			Headset_Right			Left_Shoulder			Right_Shoulder			Sternum			C7			Left Elbow			Right Elbow			Left Wrist			Right Wrist			Left ASIS			Right ASIS			S2			Left Knee			Right Knee			Left Ankle			Right Ankle			
		X1	Y1	Z1	X2	Y2	Z2	X3	Y3	Z3	X4	Y4	Z4	X5	Y5	Z5	X6	Y6	Z6	X7	Y7	Z7	X8	Y8	Z8	X9	Y9	Z9	X10	Y10	Z10	X11	Y11	Z11	X12	Y12	Z12	X13	Y13	Z13	X14	Y14	Z14	X15	Y15	Z15	X16	Y16	Z16	X17	Y17	Z17	X18	Y18	Z18	X19	Y19	Z19	

1	0.000																-408.20834	1231.98486	-1508.45996							51.29292	910.88525	-1592.63660				72.87784	715.85101	-1486.26965				-123.26005	844.74567	-1407.42847				-221.04320	860.47882	-1717.29297	-68.95604	405.33762	-1537.97766	-399.42700	415.83694	-1467.26648							
2	0.010																-408.02975	1231.16772	-1507.07227							52.39655	910.48303	-1589.37952				73.26667	714.82526	-1483.47668				-124.63443	844.34094	-1404.01855				-219.93990	860.40216	-1716.71436	-69.48826	404.89908	-1537.72095	-401.12857	419.61581	-1458.29553							
3	0.020																-407.33813	1230.92310	-1507.30786							53.92030	910.63507	-1587.58887				73.89375	714.08063	-1481.89087				-125.17599	843.63147	-1402.78687				-218.76817	860.73547	-1716.73364	-69.90506	404.22525	-1536.39087	-402.32803	421.18845	-1451.93457							
4	0.030																-406.56314	1231.53687	-1509.51538							55.07406	910.40399	-1584.59619				74.98233	713.48035	-1480.30701				-125.24136	843.29987	-1403.17834				-217.56248	860.83295	-1716.24170	-70.31717	404.25150	-1536.93835	-402.65344	422.28149	-1450.24170							
5	0.040																-406.21045	1230.78284	-1507.97058							55.90071	910.73889	-1582.52954				75.47050	712.79523	-1478.92175				-126.22250	843.25470	-1400.16809				-216.27319	861.14777	-1715.87427	-70.39688	404.20789	-1537.15576	-404.31909	424.90405	-1442.87256							
6	0.050																-406.04657	1230.79175	-1507.81128							56.72021	911.16260	-1580.16943				76.03281	713.04315	-1477.12439				-126.89450	842.90857	-1397.58972				-215.03125	861.84161	-1716.03699	-70.34128	404.40359	-1536.62598	-405.83606	427.26639	-1436.52380							
7	0.060																-405.87790	1230.84448	-1507.47949							57.34879	911.55896	-1578.10974				76.26794	712.95087	-1474.09717				-127.25053	842.39832	-1396.98230				-213.97687	862.15411	-1715.57056	-70.26394	404.59930	-1536.06409	-406.22906	428.60745	-1435.28064							
8	0.070																-405.77563	1230.95691	-1506.96851							58.03846	911.89746	-1575.68970				77.00508	712.95386	-1471.56531				-127.91606	842.14990	-1395.88367				-213.03094	862.58521	-1714.95679	-70.43280	404.70813	-1536.06470	-408.16788	432.39270	-1427.79053							
9	0.080																-405.67493	1231.12488	-1506.24500							58.59646	912.28235	-1573.29773				77.42658	713.20966	-1469.88416				-128.60759	841.83862	-1394.95142				-212.34756	862.88306	-1714.09387	-72.78086	404.84512	-1534.50989	-409.16867	433.89563	-1424.52441							
10	0.090																-405.63016	1231.33459	-1505.40295							59.36292	912.42798	-1570.44104				77.74658	713.53491	-1468.15747				-130.06194	842.38959	-1392.25476				-211.94246	863.28113	-1713.24756	-72.91223	404.90811	-1534.11230	-409.95462	435.39197	-1421.39526							
11	0.100																-405.85748	1231.15637	-1503.21167							58.97301	912.41699	-1566.39270				77.95525	713.66016	-1467.30017				-131.79739	841.64600	-1391.23511				-211.76860	863.69586	-1712.32129	-73.96811	405.11096	-1532.21838	-410.30396	436.52292	-1420.54138							
12	0.110																-405.98038	1232.11743	-1503.68579							59.66747	911.67346	-1562.55432				78.32710	713.83606	-1465.71729				-132.91573	840.80566	-1391.64612				-211.75134	864.01410	-1711.15247	-74.22752	405.25528	-1531.56030	-412.80972	440.53110	-1411.74609							
13	0.120																-406.31210	1232.18896	-1501.65149							58.13100	912.02667	-1557.06726				78.26601	713.62311	-1462.41675				-134.60440	841.04773	-1390.23669				-211.70456	864.37219	-1709.75977	-74.41985	404.99857	-1530.40479	-413.12805	440.10172	-1413.37134							
14	0.130																-406.79944	1232.66248	-1500.37842							60.19954	912.09326	-1556.70129				78.45732	713.80566	-1461.20056				-135.91861	839.74268	-1389.64868				-211.66899	864.60602	-1707.95032	-75.59287	404.57007	-1528.14124	-414.28082	439.97791	-1415.92700							
15	0.140																-406.93387	1232.98291	-1499.24878							60.28474	912.57446	-1554.32922				78.32638	713.30115	-1458.01721				-137.09926	839.35791	-1389.71021				-211.47047	864.94275	-1706.11377	-75.98269	404.69366	-1527.65527	-415.69696	441.04950	-1418.61096							
16	0.150																-407.13834	1233.33215	-1498.06274							60.25859	913.01306	-1552.02002				78.09899	713.45221	-1454.80237				-139.50600	839.98792	-1383.21851				-211.28578	865.57837	-1704.58228	-77.48097	404.39432	-1525.27112	-417.54376	441.89551	-1418.28162							
17	0.160																-407.26611	1232.81628	-1494.96558							59.84702	913.05383	-1548.50061				77.91032	713.10535	-1452.80432				-139.68488	839.54047	-1384.33142				-210.98941	865.92798	-1702.47449	-79.67188	403.71136	-1521.20825	-419.33063	443.53741	-1414.98254							
18	0.170																-407.94803	1233.21497	-1493.63013							59.93242	913.15649	-1545.62695				78.08080	713.15906	-1451.24500				-141.15259	839.75903	-1379.07581				-210.69055	866.02222	-1699.93604	-80.48784	403.27594	-1520.34778	-419.90659	444.10251	-1414.38245							
19	0.180																-408.29266	1233.55273	-1492.60120							59.96179	913.37018	-1542.97473				77.42747	712.98444	-1446.71094				-142.08705	839.49432	-1376.65466				-210.57602	866.51416	-1698.33472	-81.11020	403.78134	-1519.58691	-420.49078	444.77386	-1414.04333							
20	0.190																-409.26541	1233.08252	-1489.49011							59.41404	912.65594	-1538.69812				76.53530	712.30286	-1442.13367				-144.05919	838.93463	-1371.51953				-210.45050	866.43585	-1695.66797	-82.29317	403.19977	-1517.36938	-421.79623	445.95053	-1410.16125							
21	0.200																-410.46112	1233.56897	-1488.48291							57.27106	911.68695	-1531.44922				75.79269	711.04181	-1437.89600				-144.90437	837.51898	-1371.46655				-210.34134	866.48950	-1693.08557	-84.17648	402.04239	-1514.59985	-423.93643	448.20264	-1405.80884							
22	0.210																-411.35715	1233.85144	-1487.31848							58.39450	911.89600	-1531.18640				75.84145	711.15100	-1436.91187				-147.39758	837.36194	-1365.53406				-210.40215	866.47302	-1690.55542	-85.88237	401.83716	-1512.06335	-425.56946	446.45935	-1410.16125							
23	0.220																-412.31381	1232.91052	-1483.59399							57.61637	911.52020	-1527.01990				74.85424	711.16742	-1433.28662				-149.37047	837.17236	-1361.87488				-210.53099	866.53558	-1688.14966	-86.82294	401.57382	-1510.83826	-427.49423	444.86307	-1416.48621							
24	0.230																-413.66049	1233.28967	-1482.67542							57.02268	911.27515	-1523.59985				74.48185	710.50012	-1430.50415				-150.95354	834.63239	-1364.00024				-210.56970	866.31775	-1685.07458	-87.03377	401.86923	-1508.85828	-430.71872	446.71796	-1407.69421							
25	0.240																-414.56827	1231.87817	-1478.03052							55.70265	910.70294	-1519.39893				73.45013	709.28607	-1426.15247				-153.28929	834.48938	-1361.68860				-210.87837	866.30219	-1682.53333	-88.19116	400.83627	-1507.15747	-431.54190	446.22363	-1404.55322							
26	0.250																-416.11990	1231.87939	-1476.26929							54.97523	909.98505	-1514.41345				71.01001	709.17273	-1420.44434				-155.05879	833.14374	-1360.85413				-211.13492	865.93005	-1679.38245	-89.10004	400.12985	-1504.50354	-433.60770	446.12466	-1402.70142							
27	0.260																-417.01099	1231.31250	-1474.01379							53.65588	909.97046	-1510.97620				69.98003	708.49146	-1416.56885				-157.19606	831.17816	-1356.66101				-211.45119	865.70923	-1676.49695	-90.60294	399.76541	-1501.98767	-437.49207	445.91376	-1404.89233							
28	0.270																-418.94327	1230.46167	-1470.20386							52.36176	909.07550	-1506.14404				69.41946	707.82025	-1413.12378				-158.96591	831.22241	-1351.87012				-211.83101	865.46069	-1673.36963	-91.49917	399.35382	-1499.51062	-439.63425	443.81769	-1406.75403							
29	0.280																-420.50922	1230.11938	-1468.03711							50.51658	908.07611	-1500.32202				68.02662	707.81732	-1409.53552				-160.88470	831.74146	-1345.63867				-212.45618	865.16583	-1670.26196	-92.19957	399.61813	-1496.95459	-443.02884	444.37747	-1398.65442							
30	0.290																-422.10907	1229.07532	-1464.32080							49.41853	908.33661	-1497.44116				65.87211	707.30634	-1404.42139				-163.35490	831.54211	-1340.50623				-213.10948	864.68274	-1666.51990	-92.85109	399.33932	-1495.73608	-444.48892	443.35883	-1398.01904							
31	0.300																-424.10104	1229.09399	-1462.85278							47.22908	907.33850	-1491.88611				63.89014	705.75269	-1398.09351				-166.97784	831.11292	-1334.54614				-213.89287	864.28076	-1663.03943	-93.31166	398.87170	-1492.52698	-449.36581	442.75378	-1396.31665							
32	0.310																-425.89282	1227.94800	-1458.88049							45.10492	906.24988	-1485.78516				62.87382	705.60077	-1394.68787				-169.27588	829.37421	-1334.52014				-214.90369	863.63776	-1659.14514	-94.55450	397.94644	-1490.06201	-451.65021	442.26358	-1396.36951							
